<?xml version="1.0" encoding="UTF-8"?>
<svg version="1.1" xmlns="http://www.w3.org/2000/svg" width="512" height="512">
<path d="M0 0 C168.96 0 337.92 0 512 0 C512 168.96 512 337.92 512 512 C343.04 512 174.08 512 0 512 C0 343.04 0 174.08 0 0 Z " fill="#4F46E5" transform="translate(0,0)"/>
<path d="M0 0 C1.13329845 -0.00523668 2.26659689 -0.01047336 3.43423772 -0.01586872 C7.23412788 -0.03087797 11.03388349 -0.03157409 14.83380127 -0.03224182 C17.55734906 -0.03878266 20.28088521 -0.0482413 23.00442505 -0.0574646 C30.40533105 -0.08028824 37.80620832 -0.0882323 45.20714474 -0.09329104 C49.83086256 -0.09655099 54.45457209 -0.10307525 59.07828522 -0.11029243 C71.88771165 -0.12985456 84.69713039 -0.14626116 97.50657272 -0.14916897 C98.7354771 -0.14945032 98.7354771 -0.14945032 99.98920782 -0.14973736 C101.64996099 -0.1501036 103.31071417 -0.1504673 104.97146735 -0.15082847 C105.79583246 -0.15101128 106.62019758 -0.1511941 107.46954346 -0.15138245 C108.29491825 -0.151563 109.12029304 -0.15174354 109.97067919 -0.15192956 C123.34285764 -0.15547076 136.71487501 -0.18249141 150.0869976 -0.21988034 C163.82593523 -0.25798657 177.56479297 -0.27732661 191.30378461 -0.27762848 C199.01374817 -0.27821251 206.72351953 -0.28666951 214.43343353 -0.31562614 C220.9987241 -0.34017104 227.56375237 -0.34740208 234.12907645 -0.33237862 C237.47640654 -0.3252221 240.82279864 -0.32874662 244.17013931 -0.34878922 C247.805771 -0.36922836 251.4400686 -0.35870819 255.07568359 -0.34057617 C256.64837733 -0.36037612 256.64837733 -0.36037612 258.25284266 -0.38057607 C265.31677992 -0.30030357 270.94909076 1.16104101 276.79180908 5.27415466 C280.38336839 9.60308627 281.91336757 14.40011969 281.92882347 19.95699406 C281.93643529 21.40927925 281.93643529 21.40927925 281.94420087 22.89090353 C281.94469863 23.95702744 281.94519639 25.02315134 281.94570923 26.12158203 C281.95009148 27.2523172 281.95447374 28.38305238 281.95898879 29.54805225 C281.97240025 33.35722671 281.97856096 37.16637801 281.98468018 40.97557068 C281.99205195 43.69867229 282.00084304 46.42176903 282.00946045 49.14486694 C282.03398419 57.33208581 282.04861255 65.51931074 282.06152052 73.70655504 C282.06523279 76.01946555 282.069206 78.33237546 282.07327318 80.64528537 C282.09851252 95.01102555 282.12056365 109.37676669 282.13300133 123.74252415 C282.13593099 127.07020636 282.13889265 130.39788854 282.14190674 133.72557068 C282.14265279 134.55264198 282.14339884 135.37971327 282.1441675 136.23184734 C282.1568154 149.6236088 282.19003063 163.01523731 282.23170857 176.40693665 C282.27415774 190.15933172 282.29769989 203.91165879 282.30292189 217.66411918 C282.30633288 225.38419797 282.31805083 233.10406909 282.35102463 240.82408333 C282.37906753 247.40041473 282.39000605 253.9764959 282.37882917 260.55288244 C282.37365282 263.90627585 282.37920344 267.25872243 282.40129471 270.61211014 C282.42398078 274.25445588 282.41569168 277.89548894 282.39981079 281.5378418 C282.41369288 282.58835065 282.42757497 283.6388595 282.44187772 284.72120196 C282.36621261 291.78134552 280.94169811 297.45477189 276.79180908 303.27415466 C269.38629497 309.51518383 260.9531563 308.62865518 251.86996651 308.00991249 C247.62188448 307.74328279 243.36804255 307.64013859 239.11407471 307.50657654 C233.73457322 307.32799007 228.36931008 307.1040725 223.0010376 306.70750427 C204.16056717 304.6934279 204.16056717 304.6934279 186.98529434 310.68521881 C179.6135327 318.10030576 175.36400036 327.96932286 171.41712952 337.49836731 C169.3763498 342.38440225 166.69268917 346.81553738 163.85430908 351.27415466 C163.48410141 351.90983871 163.11389374 352.54552277 162.73246765 353.20046997 C161.70196533 354.89915466 161.70196533 354.89915466 159.79180908 357.27415466 C154.67238061 357.27415466 152.81858405 355.09745451 149.22930908 351.83665466 C147.96979903 350.7236487 146.70937327 349.61167817 145.44805908 348.50071716 C144.82673096 347.94932068 144.20540283 347.39792419 143.56524658 346.82981873 C141.16937439 344.72815331 138.70709074 342.71574277 136.22930908 340.71165466 C132.20822168 337.44636636 128.23853188 334.12837722 124.29180908 330.77415466 C118.5158372 325.87041331 112.7055154 321.0116542 106.79180908 316.27415466 C106.17726112 315.70537692 105.56271317 315.13659918 104.92954254 314.55058575 C98.96325432 309.33238703 94.71313561 308.27380329 86.90704346 308.45115662 C85.33204826 308.44463074 85.33204826 308.44463074 83.72523499 308.43797302 C80.27782949 308.43099813 76.83270747 308.4722321 73.38555908 308.51243591 C70.9761744 308.51320888 68.56678602 308.51031833 66.15740967 308.50393677 C59.82800754 308.49436155 53.49942764 308.52293848 47.17016602 308.56309509 C37.04112694 308.62462522 26.91229899 308.6442906 16.78309631 308.63327599 C13.25484246 308.63737002 9.72749177 308.66764057 6.19940186 308.70025635 C4.02512767 308.70413903 1.85085155 308.70709225 -0.32342529 308.70896912 C-1.29615891 308.7249968 -2.26889252 308.74102448 -3.27110291 308.75753784 C-9.59664183 308.73133391 -14.78898979 307.68047801 -20.20819092 304.27415466 C-24.17870265 299.48917898 -26.45496776 294.58114581 -26.46545982 288.3424263 C-26.47190872 287.36963738 -26.47835761 286.39684845 -26.48500192 285.39458108 C-26.48035612 283.80311057 -26.48035612 283.80311057 -26.47561646 282.17948914 C-26.48014757 281.04633955 -26.48467868 279.91318996 -26.4893471 278.74570251 C-26.50202949 274.94036671 -26.50036823 271.13517334 -26.49871826 267.32981873 C-26.50361354 264.60479695 -26.51144937 261.87978522 -26.51907349 259.1547699 C-26.5356822 252.51559146 -26.54118299 245.87644854 -26.54229824 239.23725107 C-26.54324888 233.83936799 -26.54735998 228.44149662 -26.55369949 223.04361725 C-26.5713124 207.73491012 -26.58053841 192.42623102 -26.57903855 177.11751369 C-26.57895863 176.29232044 -26.57887872 175.4671272 -26.57879639 174.6169281 C-26.57871463 173.7907255 -26.57863286 172.96452289 -26.57854863 172.11328384 C-26.57773595 158.72745713 -26.59686869 145.34174301 -26.62507312 131.95594886 C-26.65381401 118.2068782 -26.66761272 104.45786243 -26.66588557 90.70876098 C-26.66522203 82.99158077 -26.6706983 75.27451855 -26.69224167 67.55736542 C-26.71046947 60.98582428 -26.71478785 54.41445461 -26.70122282 47.84289911 C-26.69470067 44.49176364 -26.6967289 41.14122486 -26.71192932 37.79007721 C-26.72736144 34.15200971 -26.7180856 30.51480367 -26.70266724 26.87675476 C-26.71295436 25.82469731 -26.72324149 24.77263985 -26.73384035 23.68870187 C-26.66206609 16.01605393 -25.32482038 9.47280069 -19.83319092 3.83665466 C-13.34788977 -0.02364364 -7.34256734 -0.01677054 0 0 Z " fill="#FDFDFE" transform="translate(128.20819091796875,101.72584533691406)"/>
<path d="M0 0 C1.32661812 0.95995207 2.64006937 1.93845177 3.9375 2.9375 C4.67871094 3.49308594 5.41992188 4.04867187 6.18359375 4.62109375 C7.05177734 5.27271484 7.05177734 5.27271484 7.9375 5.9375 C8.54335938 5.40640625 9.14921875 4.8753125 9.7734375 4.328125 C20.031168 -4.31993087 29.61323345 -7.7520075 42.9375 -7.0625 C52.79220723 -5.49826076 63.31973925 -0.53469049 69.81640625 7.1640625 C77.93251892 18.72622766 80.74705884 28.85958223 78.9375 42.9375 C76.21200352 53.4683545 69.89006447 62.72336701 60.9375 68.9375 C50.26177283 75.12875244 38.89272683 76.7659965 26.76171875 74.2890625 C20.89930298 72.34874384 16.5104639 69.42110901 11.91015625 65.328125 C9.79487353 63.5533835 9.79487353 63.5533835 5.9375 63.9375 C3.69722573 65.3325971 3.69722573 65.3325971 1.4375 67.1875 C-8.81181769 74.5532633 -19.71176211 76.34689351 -32.0625 74.9375 C-40.29282952 72.78216457 -46.71907939 68.49600241 -53.0625 62.9375 C-56.26388635 64.40662935 -58.88428776 66.2520461 -61.6875 68.375 C-71.4565231 75.19059751 -81.44790205 75.95958462 -93.0625 74.9375 C-103.83093824 72.69851779 -112.79019611 65.87601258 -119.0625 56.9375 C-125.44559198 46.10941657 -127.04511383 34.19761248 -124.41015625 21.890625 C-123.48436114 19.39534891 -122.41903289 17.22639915 -121.0625 14.9375 C-120.55332031 14.07640625 -120.04414063 13.2153125 -119.51953125 12.328125 C-113.55643369 3.10374526 -105.43775994 -2.60408002 -95.0625 -6.0625 C-81.75482076 -7.52331194 -71.29184632 -6.52816431 -60.0625 0.9375 C-59.2684375 1.45828125 -58.474375 1.9790625 -57.65625 2.515625 C-56.08502281 3.60051996 -54.56388462 4.75784065 -53.0625 5.9375 C-52.11375 5.050625 -51.165 4.16375 -50.1875 3.25 C-35.57081256 -9.26590848 -16.13176683 -10.6220665 0 0 Z " fill="#4F46E5" transform="translate(279.0625,191.0625)"/>
</svg>
